<svg width="16" height="17" viewBox="0 0 16 17" xmlns="http://www.w3.org/2000/svg">
<path d="M5.33333 4.33337C5.05999 4.33337 4.83333 4.10671 4.83333 3.83337V1.83337C4.83333 1.56004 5.05999 1.33337 5.33333 1.33337C5.60666 1.33337 5.83333 1.56004 5.83333 1.83337V3.83337C5.83333 4.10671 5.60666 4.33337 5.33333 4.33337Z" fill="currentColor"/>
<path d="M10.6667 4.33337C10.3933 4.33337 10.1667 4.10671 10.1667 3.83337V1.83337C10.1667 1.56004 10.3933 1.33337 10.6667 1.33337C10.94 1.33337 11.1667 1.56004 11.1667 1.83337V3.83337C11.1667 4.10671 10.94 4.33337 10.6667 4.33337Z" fill="currentColor"/>
<path d="M5.66667 10.1667C5.58 10.1667 5.49333 10.1467 5.41333 10.1133C5.32667 10.08 5.26 10.0333 5.19333 9.97333C5.07333 9.84667 5 9.68 5 9.5C5 9.41334 5.02 9.32667 5.05333 9.24667C5.08667 9.16667 5.13333 9.09334 5.19333 9.02668C5.26 8.96668 5.32667 8.92 5.41333 8.88666C5.65333 8.78666 5.95333 8.84001 6.14 9.02668C6.26 9.15334 6.33333 9.32667 6.33333 9.5C6.33333 9.54 6.32667 9.58668 6.32 9.63335C6.31333 9.67335 6.3 9.71334 6.28 9.75334C6.26667 9.79334 6.24667 9.83334 6.22 9.87334C6.2 9.90667 6.16667 9.94 6.14 9.97333C6.01333 10.0933 5.84 10.1667 5.66667 10.1667Z" fill="currentColor"/>
<path d="M7.99999 10.1667C7.91333 10.1667 7.82666 10.1467 7.74666 10.1134C7.65999 10.08 7.59333 10.0334 7.52666 9.97337C7.40666 9.8467 7.33333 9.68004 7.33333 9.50004C7.33333 9.41337 7.35333 9.3267 7.38666 9.2467C7.42 9.1667 7.46666 9.09338 7.52666 9.02671C7.59333 8.96671 7.65999 8.92003 7.74666 8.8867C7.98666 8.78003 8.28666 8.84004 8.47333 9.02671C8.59333 9.15338 8.66666 9.3267 8.66666 9.50004C8.66666 9.54004 8.65999 9.58671 8.65333 9.63338C8.64666 9.67338 8.63333 9.71337 8.61333 9.75337C8.59999 9.79337 8.58 9.83337 8.55333 9.87337C8.53333 9.9067 8.49999 9.94003 8.47333 9.97337C8.34666 10.0934 8.17333 10.1667 7.99999 10.1667Z" fill="currentColor"/>
<path d="M10.3333 10.1667C10.2467 10.1667 10.16 10.1467 10.08 10.1134C9.99334 10.08 9.92667 10.0334 9.86001 9.97337C9.83334 9.94003 9.80667 9.9067 9.78 9.87337C9.75334 9.83337 9.73334 9.79337 9.72001 9.75337C9.70001 9.71337 9.68667 9.67338 9.68001 9.63338C9.67334 9.58671 9.66667 9.54004 9.66667 9.50004C9.66667 9.3267 9.74001 9.15338 9.86001 9.02671C9.92667 8.96671 9.99334 8.92003 10.08 8.8867C10.3267 8.78003 10.62 8.84004 10.8067 9.02671C10.9267 9.15338 11 9.3267 11 9.50004C11 9.54004 10.9933 9.58671 10.9867 9.63338C10.98 9.67338 10.9667 9.71337 10.9467 9.75337C10.9333 9.79337 10.9133 9.83337 10.8867 9.87337C10.8667 9.9067 10.8333 9.94003 10.8067 9.97337C10.68 10.0934 10.5067 10.1667 10.3333 10.1667Z" fill="currentColor"/>
<path d="M5.66667 12.5C5.58 12.5 5.49333 12.4801 5.41333 12.4467C5.33333 12.4134 5.26 12.3667 5.19333 12.3067C5.07333 12.18 5 12.0067 5 11.8334C5 11.7467 5.02 11.66 5.05333 11.58C5.08667 11.4934 5.13333 11.42 5.19333 11.36C5.44 11.1134 5.89333 11.1134 6.14 11.36C6.26 11.4867 6.33333 11.66 6.33333 11.8334C6.33333 12.0067 6.26 12.18 6.14 12.3067C6.01333 12.4267 5.84 12.5 5.66667 12.5Z" fill="currentColor"/>
<path d="M7.99999 12.5C7.82666 12.5 7.65333 12.4267 7.52666 12.3067C7.40666 12.18 7.33333 12.0067 7.33333 11.8334C7.33333 11.7467 7.35333 11.66 7.38666 11.58C7.42 11.4934 7.46666 11.42 7.52666 11.36C7.77333 11.1134 8.22666 11.1134 8.47333 11.36C8.53333 11.42 8.57999 11.4934 8.61333 11.58C8.64666 11.66 8.66666 11.7467 8.66666 11.8334C8.66666 12.0067 8.59333 12.18 8.47333 12.3067C8.34666 12.4267 8.17333 12.5 7.99999 12.5Z" fill="currentColor"/>
<path d="M10.3333 12.5001C10.16 12.5001 9.98667 12.4267 9.86001 12.3067C9.80001 12.2467 9.75334 12.1734 9.72001 12.0867C9.68667 12.0067 9.66667 11.9201 9.66667 11.8334C9.66667 11.7467 9.68667 11.6601 9.72001 11.5801C9.75334 11.4934 9.80001 11.4201 9.86001 11.3601C10.0133 11.2067 10.2467 11.1334 10.46 11.1801C10.5067 11.1867 10.5467 11.2001 10.5867 11.2201C10.6267 11.2334 10.6667 11.2534 10.7067 11.2801C10.74 11.3001 10.7733 11.3334 10.8067 11.3601C10.9267 11.4867 11 11.6601 11 11.8334C11 12.0067 10.9267 12.1801 10.8067 12.3067C10.68 12.4267 10.5067 12.5001 10.3333 12.5001Z" fill="currentColor"/>
<path d="M13.6667 7.05994H2.33333C2.05999 7.05994 1.83333 6.83327 1.83333 6.55994C1.83333 6.2866 2.05999 6.05994 2.33333 6.05994H13.6667C13.94 6.05994 14.1667 6.2866 14.1667 6.55994C14.1667 6.83327 13.94 7.05994 13.6667 7.05994Z" fill="currentColor"/>
<path d="M10.6667 15.6667H5.33333C2.9 15.6667 1.5 14.2667 1.5 11.8334V6.16671C1.5 3.73337 2.9 2.33337 5.33333 2.33337H10.6667C13.1 2.33337 14.5 3.73337 14.5 6.16671V11.8334C14.5 14.2667 13.1 15.6667 10.6667 15.6667ZM5.33333 3.33337C3.42667 3.33337 2.5 4.26004 2.5 6.16671V11.8334C2.5 13.74 3.42667 14.6667 5.33333 14.6667H10.6667C12.5733 14.6667 13.5 13.74 13.5 11.8334V6.16671C13.5 4.26004 12.5733 3.33337 10.6667 3.33337H5.33333Z" fill="currentColor"/>
</svg>
