<svg width="16" height="17" viewBox="0 0 16 17" xmlns="http://www.w3.org/2000/svg">
<path d="M4.66667 7.66671H3.33334C1.72 7.66671 0.833336 6.78004 0.833336 5.16671V3.83337C0.833336 2.22004 1.72 1.33337 3.33334 1.33337H4.66667C6.28 1.33337 7.16667 2.22004 7.16667 3.83337V5.16671C7.16667 6.78004 6.28 7.66671 4.66667 7.66671ZM3.33334 2.33337C2.28 2.33337 1.83334 2.78004 1.83334 3.83337V5.16671C1.83334 6.22004 2.28 6.66671 3.33334 6.66671H4.66667C5.72 6.66671 6.16667 6.22004 6.16667 5.16671V3.83337C6.16667 2.78004 5.72 2.33337 4.66667 2.33337H3.33334Z" fill="currentColor"/>
<path d="M12.6667 7.66671H11.3333C9.72 7.66671 8.83334 6.78004 8.83334 5.16671V3.83337C8.83334 2.22004 9.72 1.33337 11.3333 1.33337H12.6667C14.28 1.33337 15.1667 2.22004 15.1667 3.83337V5.16671C15.1667 6.78004 14.28 7.66671 12.6667 7.66671ZM11.3333 2.33337C10.28 2.33337 9.83334 2.78004 9.83334 3.83337V5.16671C9.83334 6.22004 10.28 6.66671 11.3333 6.66671H12.6667C13.72 6.66671 14.1667 6.22004 14.1667 5.16671V3.83337C14.1667 2.78004 13.72 2.33337 12.6667 2.33337H11.3333Z" fill="currentColor"/>
<path d="M12.6667 15.6667H11.3333C9.72 15.6667 8.83334 14.78 8.83334 13.1667V11.8334C8.83334 10.22 9.72 9.33337 11.3333 9.33337H12.6667C14.28 9.33337 15.1667 10.22 15.1667 11.8334V13.1667C15.1667 14.78 14.28 15.6667 12.6667 15.6667ZM11.3333 10.3334C10.28 10.3334 9.83334 10.78 9.83334 11.8334V13.1667C9.83334 14.22 10.28 14.6667 11.3333 14.6667H12.6667C13.72 14.6667 14.1667 14.22 14.1667 13.1667V11.8334C14.1667 10.78 13.72 10.3334 12.6667 10.3334H11.3333Z" fill="currentColor"/>
<path d="M4.66667 15.6667H3.33334C1.72 15.6667 0.833336 14.78 0.833336 13.1667V11.8334C0.833336 10.22 1.72 9.33337 3.33334 9.33337H4.66667C6.28 9.33337 7.16667 10.22 7.16667 11.8334V13.1667C7.16667 14.78 6.28 15.6667 4.66667 15.6667ZM3.33334 10.3334C2.28 10.3334 1.83334 10.78 1.83334 11.8334V13.1667C1.83334 14.22 2.28 14.6667 3.33334 14.6667H4.66667C5.72 14.6667 6.16667 14.22 6.16667 13.1667V11.8334C6.16667 10.78 5.72 10.3334 4.66667 10.3334H3.33334Z" fill="currentColor"/>
</svg>
