<svg width="16" height="17" viewBox="0 0 16 17" xmlns="http://www.w3.org/2000/svg">
<path d="M11.9134 15.08C11.7067 15.08 11.5001 15.0266 11.3134 14.9133L8.64006 13.3266C8.36005 13.32 8.08005 13.3 7.81338 13.26C7.63338 13.2333 7.48005 13.1133 7.41338 12.9399C7.34671 12.7666 7.38005 12.5799 7.50005 12.4399C7.94005 11.9266 8.16672 11.3133 8.16672 10.66C8.16672 9.04662 6.74672 7.73328 5.00005 7.73328C4.34672 7.73328 3.72005 7.9133 3.19338 8.25997C3.04671 8.3533 2.86672 8.36663 2.70672 8.29329C2.55338 8.21996 2.44005 8.07328 2.42005 7.89994C2.40005 7.71328 2.38672 7.52663 2.38672 7.33329C2.38672 4.02663 5.25339 1.33997 8.77339 1.33997C12.2934 1.33997 15.1601 4.02663 15.1601 7.33329C15.1601 9.14663 14.32 10.8133 12.84 11.9533L13.0667 13.7666C13.1201 14.22 12.92 14.6466 12.54 14.8933C12.3534 15.0133 12.1334 15.08 11.9134 15.08ZM8.76671 12.3199C8.86005 12.3133 8.95339 12.34 9.03339 12.3933L11.8267 14.0533C11.9001 14.1 11.9601 14.08 12.0001 14.0533C12.0334 14.0333 12.0867 13.98 12.0734 13.8866L11.8134 11.7799C11.7934 11.5933 11.8734 11.4133 12.02 11.3066C13.38 10.3533 14.1601 8.89995 14.1601 7.31995C14.1601 4.56661 11.7467 2.32662 8.77339 2.32662C5.91339 2.32662 3.56672 4.40665 3.39338 7.01998C3.89338 6.82665 4.43339 6.71997 4.99339 6.71997C7.29339 6.71997 9.16005 8.47994 9.16005 10.6466C9.16672 11.2333 9.02671 11.7999 8.76671 12.3199Z" fill="currentColor"/>
<path d="M3.05318 15.6667C2.87985 15.6667 2.71318 15.62 2.55984 15.52C2.25984 15.3267 2.09985 14.9933 2.13985 14.64L2.27318 13.6133C1.37318 12.88 0.839844 11.7933 0.839844 10.6533C0.839844 9.35332 1.51985 8.14 2.65985 7.41333C3.34652 6.96666 4.15984 6.72668 5.00651 6.72668C7.30651 6.72668 9.17318 8.48665 9.17318 10.6533C9.17318 11.5333 8.85318 12.4 8.26651 13.0867C7.51318 14 6.38651 14.5333 5.14651 14.5733L3.51985 15.54C3.37318 15.6267 3.21318 15.6667 3.05318 15.6667ZM4.99985 7.72668C4.34651 7.72668 3.71984 7.90667 3.19318 8.25334C2.33984 8.8 1.83318 9.69332 1.83318 10.6533C1.83318 11.58 2.28652 12.4267 3.08652 12.9733C3.23985 13.08 3.31985 13.26 3.29985 13.4467L3.15318 14.5867L4.74651 13.64C4.82651 13.5933 4.91318 13.5666 4.99985 13.5666C5.97985 13.5666 6.90652 13.1467 7.49318 12.4333C7.93318 11.9133 8.16651 11.3 8.16651 10.6466C8.16651 9.03998 6.74651 7.72668 4.99985 7.72668Z" fill="currentColor"/>
</svg>
