<svg width="16" height="17" viewBox="0 0 16 17" xmlns="http://www.w3.org/2000/svg">
<path d="M8.10641 8.24671C8.08641 8.24671 8.07307 8.24671 8.05307 8.24671C8.01974 8.24004 7.97307 8.24004 7.93307 8.24671C5.99974 8.18671 4.53974 6.66671 4.53974 4.79337C4.53974 2.88671 6.09308 1.33337 7.99974 1.33337C9.90641 1.33337 11.4597 2.88671 11.4597 4.79337C11.4531 6.66671 9.98641 8.18671 8.12641 8.24671C8.11974 8.24671 8.11307 8.24671 8.10641 8.24671ZM7.99974 2.33337C6.64641 2.33337 5.53974 3.44004 5.53974 4.79337C5.53974 6.12671 6.57974 7.20004 7.90641 7.24671C7.93974 7.24004 8.03308 7.24004 8.11974 7.24671C9.42641 7.18671 10.4531 6.11337 10.4597 4.79337C10.4597 3.44004 9.35308 2.33337 7.99974 2.33337Z" fill="currentColor"/>
<path d="M8.11307 15.5333C6.80641 15.5333 5.49307 15.2 4.49974 14.5333C3.57307 13.92 3.06641 13.08 3.06641 12.1666C3.06641 11.2533 3.57307 10.4066 4.49974 9.78663C6.49974 8.45996 9.73974 8.45996 11.7264 9.78663C12.6464 10.4 13.1597 11.24 13.1597 12.1533C13.1597 13.0666 12.6531 13.9133 11.7264 14.5333C10.7264 15.2 9.41974 15.5333 8.11307 15.5333ZM5.05307 10.6266C4.41307 11.0533 4.06641 11.6 4.06641 12.1733C4.06641 12.74 4.41974 13.2866 5.05307 13.7066C6.71307 14.82 9.51307 14.82 11.1731 13.7066C11.8131 13.28 12.1597 12.7333 12.1597 12.16C12.1597 11.5933 11.8064 11.0466 11.1731 10.6266C9.51307 9.51996 6.71307 9.51996 5.05307 10.6266Z" fill="currentColor"/>
</svg>
