<svg width="16" height="17" viewBox="0 0 16 17" xmlns="http://www.w3.org/2000/svg">
<path d="M8.04666 15.1533C7.10666 15.1533 6.16 14.7933 5.44666 14.08L2.42666 11.06C1.69333 10.3267 1.30666 9.31333 1.35333 8.27999L1.51333 4.94666C1.58666 3.35333 2.84666 2.09333 4.44666 2.01333L7.78 1.85333C8.81333 1.81333 9.82666 2.19333 10.56 2.92666L13.58 5.94666C15.0133 7.38 15.0133 9.71999 13.58 11.1533L10.6533 14.08C9.93333 14.7933 8.99333 15.1533 8.04666 15.1533ZM3.13333 10.3467L6.15333 13.3667C6.66 13.8733 7.33333 14.1533 8.04666 14.1533C8.76 14.1533 9.43333 13.8733 9.94 13.3667L12.8667 10.44C13.3733 9.93333 13.6533 9.25999 13.6533 8.54666C13.6533 7.83333 13.3733 7.15999 12.8667 6.65333L9.84667 3.63333C9.31333 3.09999 8.57333 2.81333 7.82666 2.85333L4.49333 3.01333C3.40666 3.05999 2.56 3.90666 2.50666 4.98666L2.34666 8.31999C2.31333 9.07333 2.6 9.81333 3.13333 10.3467Z" fill="black"/>
<path d="M6.33334 8.99996C5.14001 8.99996 4.16667 8.02663 4.16667 6.83329C4.16667 5.63996 5.14001 4.66663 6.33334 4.66663C7.52667 4.66663 8.50001 5.63996 8.50001 6.83329C8.50001 8.02663 7.52667 8.99996 6.33334 8.99996ZM6.33334 5.66663C5.69334 5.66663 5.16667 6.19329 5.16667 6.83329C5.16667 7.47329 5.69334 7.99996 6.33334 7.99996C6.97334 7.99996 7.50001 7.47329 7.50001 6.83329C7.50001 6.19329 6.97334 5.66663 6.33334 5.66663Z" fill="black"/>
</svg>
